<!-- 
<svg id="sw-js-blob-svg" viewBox="0 0 100 100" height="300" width="300" xmlns="http://www.w3.org/2000/svg" version="1.1">
    <defs> 
        <linearGradient id="sw-gradient" x1="0" x2="1" y1="1" y2="0">
            <stop id="stop1" stop-color="rgba(13.203, 53.504, 212.566, 1)" offset="0%"></stop>
            <stop id="stop2" stop-color="rgba(31, 251, 231.994, 1)" offset="100%"></stop>
        </linearGradient>
    </defs>
    <mask id="mask1" mask-type='alpha'>
            <path fill="url(#sw-gradient)" d="M20,-32.3C25,-27.8,27.6,-20.8,29.9,-14.1C32.3,-7.5,34.4,-1.1,32.5,4C30.7,9.1,25.1,12.9,20.9,18.6C16.7,24.3,14.1,31.8,9.4,34.1C4.7,36.5,-2.2,33.7,-8.7,31.2C-15.3,28.6,-21.5,26.3,-26.8,22.1C-32.1,17.9,-36.5,11.9,-38.8,4.8C-41.1,-2.4,-41.3,-10.6,-37.3,-16.1C-33.4,-21.6,-25.4,-24.4,-18.5,-28C-11.6,-31.6,-5.8,-36.1,0.8,-37.4C7.5,-38.7,14.9,-36.8,20,-32.3Z" width="100%" height="100%" transform="translate(50 50)" stroke-width="0" style="transition: all 0.3s ease 0s;" stroke="url(#sw-gradient)"></path>
    </mask>
    <g mask="url(#mask1)">
        <path fill="url(#sw-gradient)" d="M20,-32.3C25,-27.8,27.6,-20.8,29.9,-14.1C32.3,-7.5,34.4,-1.1,32.5,4C30.7,9.1,25.1,12.9,20.9,18.6C16.7,24.3,14.1,31.8,9.4,34.1C4.7,36.5,-2.2,33.7,-8.7,31.2C-15.3,28.6,-21.5,26.3,-26.8,22.1C-32.1,17.9,-36.5,11.9,-38.8,4.8C-41.1,-2.4,-41.3,-10.6,-37.3,-16.1C-33.4,-21.6,-25.4,-24.4,-18.5,-28C-11.6,-31.6,-5.8,-36.1,0.8,-37.4C7.5,-38.7,14.9,-36.8,20,-32.3Z" width="100%" height="100%" transform="translate(50 50)" stroke-width="0" style="transition: all 0.3s ease 0s;" stroke="url(#sw-gradient)"></path>
        <img href="image.jpeg" width="30" height="30" x="120" y="180"/>
    </g>
</svg> -->

<!--?xml version="1.0" standalone="no"?-->              
<svg id="sw-js-blob-svg" viewBox="0 0 100 100" xmlns="http://www.w3.org/2000/svg">                    <defs>                         <linearGradient id="sw-gradient" x1="0" x2="1" y1="1" y2="0">                            <stop id="stop1" stop-color="rgba(248, 117, 55, 1)" offset="0%"></stop>                            <stop id="stop2" stop-color="rgba(251, 168, 31, 1)" offset="100%"></stop>                        </linearGradient>                    </defs>                <path fill="url(#sw-gradient)" d="M21.8,-30.9C28,-25.6,32.5,-18.8,36,-11C39.5,-3.2,42.1,5.7,39.7,12.9C37.3,20.1,30,25.6,22.5,29.5C15.1,33.4,7.5,35.6,-0.2,35.9C-8,36.2,-16,34.6,-22.3,30.3C-28.7,26.1,-33.5,19.3,-37,11.3C-40.6,3.4,-42.9,-5.7,-41.3,-14.3C-39.8,-23,-34.3,-31.4,-26.8,-36.3C-19.2,-41.2,-9.6,-42.6,-0.9,-41.4C7.8,-40.2,15.7,-36.3,21.8,-30.9Z" width="100%" height="100%" transform="translate(50 50)" stroke-width="0" style="transition: all 0.3s ease 0s;"></path>              </svg>